<?xml version="1.0" encoding="UTF-8" standalone="no"?>
<svg
   xmlns:dc="http://purl.org/dc/elements/1.1/"
   xmlns:cc="http://creativecommons.org/ns#"
   xmlns:rdf="http://www.w3.org/1999/02/22-rdf-syntax-ns#"
   xmlns:svg="http://www.w3.org/2000/svg"
   xmlns="http://www.w3.org/2000/svg"
   xmlns:sodipodi="http://sodipodi.sourceforge.net/DTD/sodipodi-0.dtd"
   xmlns:inkscape="http://www.inkscape.org/namespaces/inkscape"
   id="svg8"
   version="1.1"
   viewBox="0 0 13.758333 13.758334"
   height="52"
   width="52"
   sodipodi:docname="info.svg"
   inkscape:version="0.92.2 5c3e80d, 2017-08-06">
  <sodipodi:namedview
     pagecolor="#ffffff"
     bordercolor="#666666"
     borderopacity="1"
     objecttolerance="10"
     gridtolerance="10"
     guidetolerance="10"
     inkscape:pageopacity="0"
     inkscape:pageshadow="2"
     inkscape:window-width="1366"
     inkscape:window-height="708"
     id="namedview855"
     showgrid="false"
     inkscape:zoom="4.5396256"
     inkscape:cx="21.461493"
     inkscape:cy="24.521617"
     inkscape:window-x="0"
     inkscape:window-y="31"
     inkscape:window-maximized="1"
     inkscape:current-layer="svg8" />
  <defs
     id="defs2" />
  <metadata
     id="metadata5">
    <rdf:RDF>
      <cc:Work
         rdf:about="">
        <dc:format>image/svg+xml</dc:format>
        <dc:type
           rdf:resource="http://purl.org/dc/dcmitype/StillImage" />
        <dc:title />
      </cc:Work>
    </rdf:RDF>
  </metadata>
  <path
     style="fill:#ffefaf;fill-opacity:1;fill-rule:evenodd;stroke:#000000;stroke-width:0.71437502;stroke-linecap:butt;stroke-linejoin:round;stroke-miterlimit:4;stroke-dasharray:none;stroke-opacity:1"
     d="m 1.856458,12.030252 h 5.2334747 0.080258 5.2339823 L 7.1300619,1.5633034 Z"
     id="path5129"
     inkscape:connector-curvature="0"
     sodipodi:nodetypes="cccccc" />
  <path
     inkscape:connector-curvature="0"
     id="path5156"
     d="m 6.5391341,10.388801 q 0,-0.176733 0.046508,-0.297656 0.046509,-0.1255737 0.1255737,-0.1999875 0.079065,-0.079065 0.1860352,-0.1116216 0.1069702,-0.037206 0.2325439,-0.037206 0.1209229,0 0.2278931,0.037206 0.111621,0.032553 0.190686,0.1116216 0.079065,0.074412 0.1255737,0.1999875 0.046508,0.120923 0.046508,0.297656 0,0.172082 -0.046508,0.297657 -0.046508,0.120922 -0.1255737,0.199987 -0.079065,0.07906 -0.190686,0.116272 -0.1069702,0.03721 -0.2278931,0.03721 -0.1255737,0 -0.2325439,-0.03721 Q 6.7902815,10.96551 6.7112166,10.886445 6.6321517,10.80738 6.5856428,10.686458 6.5391341,10.560883 6.5391341,10.388801 Z"
     style="font-style:normal;font-variant:normal;font-weight:normal;font-stretch:normal;font-size:medium;line-height:6.61458349px;font-family:'Droid Sans';-inkscape-font-specification:'Droid Sans';letter-spacing:0px;word-spacing:0px;fill:#000000;fill-opacity:1;stroke:none;stroke-width:0.23812501px;stroke-linecap:butt;stroke-linejoin:miter;stroke-opacity:1" />
  <path
     style="fill:#000000;fill-opacity:1;fill-rule:evenodd;stroke:none;stroke-width:0.0714375;stroke-linecap:butt;stroke-linejoin:miter;stroke-miterlimit:4;stroke-dasharray:none;stroke-opacity:1"
     d="m 7.1661261,4.0697057 c -0.257142,0 -0.5023186,-0.062381 -0.4999695,1.5743225 0,0.6490947 0.092842,2.2254991 0.1855701,2.6891383 0.086754,0.4337728 0.1106294,0.605851 0.2953308,0.6264733 v 0.00419 c 0.00714,0 0.012342,-0.00198 0.019069,-0.00233 0.00684,3.572e-4 0.012271,0.00233 0.019533,0.00233 v -0.00419 C 7.3701447,8.9388967 7.3942729,8.766755 7.4809906,8.3331665 7.5737184,7.8695273 7.6665608,6.2931229 7.6665608,5.6440282 7.6689182,4.0073243 7.4232682,4.0697057 7.1661261,4.0697057 Z"
     id="path5165"
     inkscape:connector-curvature="0"
     sodipodi:nodetypes="scscccccscs" />
</svg>
